<mxfile host="app.diagrams.net" modified="2022-01-06T11:01:53.809Z" agent="5.0 (X11)" etag="2HyIO9YIwdm6vnYtWU_q" version="16.2.2" type="github">
  <diagram id="WW1PyrgwQDalkW9LFlc_" name="Page-1">
    <mxGraphModel dx="2200" dy="1893" grid="1" gridSize="10" guides="1" tooltips="1" connect="1" arrows="1" fold="1" page="1" pageScale="1" pageWidth="850" pageHeight="1100" math="0" shadow="0">
      <root>
        <mxCell id="0" />
        <mxCell id="1" parent="0" />
        <mxCell id="OQJtAhb365vSw_wCuCF6-1" value="FactoryService" style="rounded=1;whiteSpace=wrap;html=1;" vertex="1" parent="1">
          <mxGeometry x="-90" y="-120" width="120" height="60" as="geometry" />
        </mxCell>
        <mxCell id="OQJtAhb365vSw_wCuCF6-6" value="ShipNavigator" style="rounded=1;whiteSpace=wrap;html=1;" vertex="1" parent="1">
          <mxGeometry x="240" y="-180" width="120" height="60" as="geometry" />
        </mxCell>
        <mxCell id="OQJtAhb365vSw_wCuCF6-8" value="PlanetService" style="rounded=1;whiteSpace=wrap;html=1;" vertex="1" parent="1">
          <mxGeometry x="250" y="100" width="120" height="60" as="geometry" />
        </mxCell>
        <mxCell id="OQJtAhb365vSw_wCuCF6-10" value="" style="endArrow=classic;html=1;rounded=0;" edge="1" parent="1" source="OQJtAhb365vSw_wCuCF6-8" target="OQJtAhb365vSw_wCuCF6-1">
          <mxGeometry width="50" height="50" relative="1" as="geometry">
            <mxPoint x="424.5" y="410" as="sourcePoint" />
            <mxPoint x="410.5" y="370" as="targetPoint" />
          </mxGeometry>
        </mxCell>
        <mxCell id="OQJtAhb365vSw_wCuCF6-11" value="ResourceService" style="rounded=1;whiteSpace=wrap;html=1;" vertex="1" parent="1">
          <mxGeometry x="-140" y="100" width="120" height="60" as="geometry" />
        </mxCell>
        <mxCell id="OQJtAhb365vSw_wCuCF6-12" value="" style="endArrow=classic;html=1;rounded=0;" edge="1" parent="1" source="OQJtAhb365vSw_wCuCF6-8" target="OQJtAhb365vSw_wCuCF6-11">
          <mxGeometry width="50" height="50" relative="1" as="geometry">
            <mxPoint x="211.42857142857156" y="520" as="sourcePoint" />
            <mxPoint x="368.57142857142844" y="370" as="targetPoint" />
          </mxGeometry>
        </mxCell>
        <mxCell id="OQJtAhb365vSw_wCuCF6-13" value="Api" style="rounded=1;whiteSpace=wrap;html=1;" vertex="1" parent="1">
          <mxGeometry x="-80" y="330" width="120" height="60" as="geometry" />
        </mxCell>
        <mxCell id="OQJtAhb365vSw_wCuCF6-21" value="FightService" style="rounded=1;whiteSpace=wrap;html=1;" vertex="1" parent="1">
          <mxGeometry x="600" y="-180" width="120" height="60" as="geometry" />
        </mxCell>
        <mxCell id="OQJtAhb365vSw_wCuCF6-22" value="" style="endArrow=classic;html=1;rounded=0;" edge="1" parent="1" source="OQJtAhb365vSw_wCuCF6-6" target="OQJtAhb365vSw_wCuCF6-21">
          <mxGeometry width="50" height="50" relative="1" as="geometry">
            <mxPoint x="358.3333333333335" y="-20" as="sourcePoint" />
            <mxPoint x="391.6666666666665" y="100" as="targetPoint" />
          </mxGeometry>
        </mxCell>
        <mxCell id="OQJtAhb365vSw_wCuCF6-23" value="Building" style="rounded=1;whiteSpace=wrap;html=1;" vertex="1" parent="1">
          <mxGeometry x="470" y="390" width="120" height="60" as="geometry" />
        </mxCell>
        <mxCell id="OQJtAhb365vSw_wCuCF6-24" value="Research" style="rounded=1;whiteSpace=wrap;html=1;" vertex="1" parent="1">
          <mxGeometry x="300" y="390" width="120" height="60" as="geometry" />
        </mxCell>
        <mxCell id="OQJtAhb365vSw_wCuCF6-25" value="ShipService" style="rounded=1;whiteSpace=wrap;html=1;" vertex="1" parent="1">
          <mxGeometry x="680" y="390" width="120" height="60" as="geometry" />
        </mxCell>
        <mxCell id="OQJtAhb365vSw_wCuCF6-26" value="" style="endArrow=classic;html=1;rounded=0;" edge="1" parent="1" source="OQJtAhb365vSw_wCuCF6-8" target="OQJtAhb365vSw_wCuCF6-24">
          <mxGeometry width="50" height="50" relative="1" as="geometry">
            <mxPoint x="325.625" y="110" as="sourcePoint" />
            <mxPoint x="390" y="40" as="targetPoint" />
          </mxGeometry>
        </mxCell>
        <mxCell id="OQJtAhb365vSw_wCuCF6-27" value="" style="endArrow=classic;html=1;rounded=0;" edge="1" parent="1" source="OQJtAhb365vSw_wCuCF6-8" target="OQJtAhb365vSw_wCuCF6-23">
          <mxGeometry width="50" height="50" relative="1" as="geometry">
            <mxPoint x="323.3333333333335" y="170" as="sourcePoint" />
            <mxPoint x="326.6666666666665" y="200" as="targetPoint" />
          </mxGeometry>
        </mxCell>
        <mxCell id="OQJtAhb365vSw_wCuCF6-28" value="" style="endArrow=classic;html=1;rounded=0;" edge="1" parent="1" source="OQJtAhb365vSw_wCuCF6-8" target="OQJtAhb365vSw_wCuCF6-25">
          <mxGeometry width="50" height="50" relative="1" as="geometry">
            <mxPoint x="260" y="167" as="sourcePoint" />
            <mxPoint x="180" y="203" as="targetPoint" />
          </mxGeometry>
        </mxCell>
        <mxCell id="OQJtAhb365vSw_wCuCF6-29" value="" style="endArrow=classic;html=1;rounded=0;" edge="1" parent="1" source="OQJtAhb365vSw_wCuCF6-8" target="OQJtAhb365vSw_wCuCF6-6">
          <mxGeometry width="50" height="50" relative="1" as="geometry">
            <mxPoint x="500" y="340" as="sourcePoint" />
            <mxPoint x="610" y="450" as="targetPoint" />
          </mxGeometry>
        </mxCell>
        <mxCell id="OQJtAhb365vSw_wCuCF6-33" value="" style="endArrow=classic;html=1;rounded=0;" edge="1" parent="1" source="OQJtAhb365vSw_wCuCF6-21" target="OQJtAhb365vSw_wCuCF6-8">
          <mxGeometry width="50" height="50" relative="1" as="geometry">
            <mxPoint x="600" y="-197.5" as="sourcePoint" />
            <mxPoint x="720" y="-172.5" as="targetPoint" />
          </mxGeometry>
        </mxCell>
        <mxCell id="OQJtAhb365vSw_wCuCF6-34" value="" style="endArrow=classic;html=1;rounded=0;" edge="1" parent="1" source="OQJtAhb365vSw_wCuCF6-13" target="OQJtAhb365vSw_wCuCF6-8">
          <mxGeometry width="50" height="50" relative="1" as="geometry">
            <mxPoint x="260" y="140" as="sourcePoint" />
            <mxPoint x="-10" y="140" as="targetPoint" />
          </mxGeometry>
        </mxCell>
      </root>
    </mxGraphModel>
  </diagram>
</mxfile>
